<?xml version="1.0" encoding="utf-8"?>
<!-- Generator: Adobe Illustrator 23.0.0, SVG Export Plug-In . SVG Version: 6.00 Build 0)  -->
<svg version="1.1" id="Layer_1" xmlns="http://www.w3.org/2000/svg" xmlns:xlink="http://www.w3.org/1999/xlink" x="0px" y="0px"
	 width="60.4px" height="30px" viewBox="0 0 60.4 30" style="enable-background:new 0 0 60.4 30;" xml:space="preserve">
<style type="text/css">
	.st0{fill:#FFFFFF;}
</style>
<path class="st0" d="M19.5,13.9c0-2.4-2.5-4.5-5.4-4.5H0.3v2.8h13c0,0,1.9,0.1,1.9,1.5S13.2,15,13.2,15h-13v6h4.4v-3h6l4.3,2.8h6.1
	l-5-3.5C16,17.5,19.4,16.2,19.5,13.9z M40,13.4c0-3.9-5.7-4.3-6.2-4.3H21.6v3L34,12h0.1c0.9,0,1.6,0.6,1.7,1.5
	c0,1.2-1.4,1.4-1.8,1.4H21.6v5.9h4.4v-3h7.8C34.7,18,40,17.8,40,13.4z M37.6,9.2l6.8,5.9l-6.5,5.7h3.7l6.6-5.7l-6.9-5.9
	C41.3,9.2,37.6,9.2,37.6,9.2z M60.4,9.2h-5.7L51,12.4l-3.9-3.5l-0.5,0.5l6.5,6l0.3-0.3v0.1l-2.7,2.4l3.7,3.2h5.7l-6.5-5.7L60.4,9.2z
	"/>
</svg>
