<?xml version="1.0" encoding="utf-8"?>
<!-- Generator: Adobe Illustrator 23.0.0, SVG Export Plug-In . SVG Version: 6.00 Build 0)  -->
<svg version="1.1" id="Layer_1" xmlns="http://www.w3.org/2000/svg" xmlns:xlink="http://www.w3.org/1999/xlink" x="0px" y="0px"
	 width="62.2px" height="30px" viewBox="0 0 62.2 30" style="enable-background:new 0 0 62.2 30;" xml:space="preserve">
<style type="text/css">
	.st0{fill:#FFFFFF;}
</style>
<path class="st0" d="M19.9,9l-3.6,7.2L12.6,9H6.5v12h3.4v-8.7h0.7l4.3,8.7h2.8l4.2-8.7h0.7V21H26V9H19.9z M0,21h3.8V9H0V21z
	 M35.8,11.7l2.3,4.6h-5l2.3-4.6C35.4,11.7,35.8,11.7,35.8,11.7z M26.7,21h4l1-2h7.6l1,2h4l-6-12h-5.6L26.7,21z M60.7,9h-3.9
	l-3.3,3.9L50.2,9h-4.7l4.8,5.6L44.6,21h5l3.8-4.4l3.8,4.4h5l-5.7-6.4L61.3,9H60.7z"/>
</svg>
